<?xml version="1.0" encoding="UTF-8"?>
<svg width="346.67" height="346.67" version="1.0" viewBox="0 0 260 260" xmlns="http://www.w3.org/2000/svg">
 <path d="m129.96 0.24999c-36.391 0.010691-71.104 15.301-95.675 42.145h166.27c13.104 0 19.769 15.751 10.648 25.159l-102.59 120.39h137.47c8.9805-17.994 13.655-37.829 13.656-57.94 0-71.659-58.091-129.75-129.75-129.75zm-116.06 71.813c-8.9791 17.993-13.653 37.827-13.653 57.937 0 71.659 58.091 129.75 129.75 129.75 36.403-4.9e-4 71.132-15.294 95.711-42.147h-166.27c-13.104 0-19.769-15.751-10.648-25.16l102.59-120.38z" color="#000000" stop-color="#000000" style="paint-order:markers stroke fill"/>
</svg>
