<?xml version="1.0" encoding="UTF-8"?>
<svg width="200" height="200" version="1.1" viewBox="0 0 52.917 52.917" xmlns="http://www.w3.org/2000/svg">
 <path d="m26.451 0.52936c-7.2723 0.0021401-14.209 3.0578-19.119 8.4221h33.228c2.6186 0 3.9505 3.1477 2.1278 5.0279l-20.5 24.058h27.472c1.7947-3.5959 2.7289-7.5596 2.7289-11.578 0-14.32-11.609-25.929-25.929-25.929zm-23.194 14.351c-1.7944 3.5958-2.7284 7.5596-2.7284 11.578 0 14.32 11.609 25.929 25.929 25.929 7.275-9.6e-5 14.215-3.0563 19.127-8.4227h-33.228c-2.6186 0-3.9505-3.1478-2.1279-5.0279l20.5-24.057z" color="#000000" stop-color="#000000" stroke-width=".53406" style="paint-order:markers stroke fill"/>
</svg>
