<?xml version="1.0" encoding="UTF-8"?>
<svg width="600" height="200" version="1.1" viewBox="0 0 158.75 52.917" xmlns="http://www.w3.org/2000/svg">
<g transform="translate(-12.462 -81.391)">
<path d="m35.381 133.39c-1.9211-0.16142-4.8451-0.85968-6.7849-1.6203-3.2888-1.2896-6.0264-3.1033-8.6913-5.7583-3.855-3.8408-6.2037-8.2852-7.1364-13.504-0.33027-1.848-0.41306-6.1868-0.15556-8.1529 0.51766-3.9526 1.807-7.4145 3.9638-10.643 3.1157-4.6634 7.8232-8.3352 12.928-10.084 2.811-0.96285 5.4287-1.3794 8.6693-1.3794 4.1565 0 7.7527 0.78586 11.214 2.4506 2.761 1.3278 4.6799 2.7134 7.0586 5.097 2.3152 2.3199 3.6363 4.1571 4.9927 6.9428 2.4485 5.0286 3.0977 11.33 1.7765 17.246-0.77079 3.451-2.718 7.3354-5.102 10.177-1.1102 1.3235-2.9887 3.1381-4.2887 4.1428-3.5818 2.7682-8.1583 4.5884-12.684 5.0448-1.0324 0.10411-4.6983 0.13002-5.7611 0.0407zm5.034-2.0244c5.3406-0.63033 10.646-3.1079 14.301-6.6782 0.88261-0.86212 2.1685-2.3452 2.1685-2.501 0-0.0398-1.0465-0.10542-2.3255-0.14585-1.279-0.0404-4.2461-0.15492-6.5934-0.25441-2.7998-0.11867-6.6772-0.18352-11.272-0.18852-7.0149-8e-3 -17.317 0.12616-17.48 0.22701-0.2231 0.13789 2.1455 2.7732 3.5142 3.9098 3.7709 3.1316 8.05 4.9601 13.2 5.6402 0.91078 0.12028 3.4339 0.11515 4.4868-9e-3zm19.013-13.277c0.44856-0.81963 1.1325-2.615 1.5503-4.0696 1.1831-4.1186 1.1812-8.2131-0.0057-12.345-0.65959-2.2962-1.5183-4.2327-2.8252-6.3714-0.0079-0.0129-0.86896 0.35121-1.9134 0.80924-2.0121 0.88236-5.9225 3.1404-8.4866 4.9005-0.72227 0.4958-2.6281 1.794-4.2351 2.8849-3.8306 2.6003-10.328 7.606-14.67 11.301-1.911 1.6265-3.4745 3.0077-3.4745 3.0692 0 0.0632 0.13088 0.0866 0.30094 0.0537 0.36679-0.071 2.1545-0.14959 6.7576-0.29711 7.0768-0.22679 13.14-0.1076 22.543 0.44313 1.8659 0.10928 3.5648 0.19188 3.7755 0.18356 0.34105-0.0135 0.41583-0.0751 0.68247-0.56231zm-42.71-2.2478c0.86289-2.3668 3.7118-5.8058 7.8293-9.4508 7.0144-5.9512 15.4-11.527 22.571-15.219 0.82655-0.41689 1.45-0.79754 1.45-0.88528 0-0.17687-0.10088-0.20351-1.5868-0.41911-5.1756-0.75095-10.728-0.75178-16.743-2e-3 -3.5598 0.44337-7.2803 1.5946-9.836 3.0435-1.0703 0.6068-1.335 0.90136-2.4462 2.7222-0.88206 1.4454-1.7157 3.2527-2.2815 4.9457-1.3803 4.1308-1.6039 7.9904-0.70226 12.123 0.28034 1.2848 1.2044 4.0397 1.3399 3.9946 0.05959-0.0199 0.24231-0.40355 0.40604-0.85263zm32.78-27.993c1.7923 0.48366 1.8278 0.48633 1.2171 0.0911-2.2177-1.4349-5.3287-2.6583-8.3303-3.2759-4.714-0.96988-10.018-0.19978-14.7 2.1343-1.6137 0.80444-3.8487 2.1718-3.8487 2.3547 0 0.054 0.27866-0.0251 0.61924-0.17572 6.8304-2.8785 17.815-2.9641 25.043-1.1285zm60.353 35.654c-1.9144-0.23412-4.389-0.92611-5.7395-1.605-3.2006-1.6089-5.7959-4.6809-6.9483-8.2242-0.55674-1.7119-0.71838-2.9059-0.71323-5.2684 0.0064-2.9301 0.38745-4.7978 1.4178-6.9491 1.2757-2.6635 3.8783-5.2392 6.7609-6.6909 2.9344-1.4777 6.7188-1.9649 10.883-1.4009 3.6062 0.4885 6.4542 1.8259 8.912 4.185 1.9294 1.8519 3.0676 3.9534 3.7163 6.8615 0.2873 1.288 0.39378 4.1744 0.21175 5.7401-0.40423 3.4771-1.7775 6.3819-4.1888 8.8603-2.2011 2.2623-5.0012 3.6525-8.7463 4.3422-1.0938 0.20142-4.4113 0.29045-5.5652 0.14935zm5.2528-1.6353c1.9672-0.48038 4.0946-1.8031 5.4696-3.4007 0.9377-1.0895 1.4804-1.9353 2.1972-3.4244 1.2102-2.5141 1.5807-4.3845 1.4883-7.5127-0.069-2.3336-0.19747-3.3738-0.57971-4.6928-1.245-4.2962-4.5629-7.3241-8.9037-8.1253-1.0178-0.18786-3.3737-0.1595-4.4946 0.0541-5.1215 0.97601-8.3401 4.6268-9.42 10.685-0.26777 1.5021-0.32449 4.7877-0.10673 6.183 0.66108 4.2361 2.7412 7.4576 5.9232 9.1736 0.93836 0.50602 2.375 0.99895 3.3925 1.164 0.45142 0.0732 0.89462 0.15106 0.9849 0.17299 0.48216 0.11709 3.1962-0.0683 4.0491-0.27658zm17.509-13.485v-14.642l4.1312 4.2e-4c5.6729 4.1e-4 7.7891 0.14438 9.9312 0.67509 2.5525 0.63241 3.9934 2.0979 4.4924 4.5693 0.22422 1.1104 0.17004 3.3014-0.10713 4.3307-0.82316 3.0571-3.3933 5.0115-8.0067 6.0884-0.97411 0.22739-1.3678 0.25424-3.8749 0.26423l-2.7906 0.0111-0.0564 13.351-3.7191-6e-3v-14.642zm7.934-0.472c3.4508-0.28633 5.8792-2.1323 6.6211-5.0332 0.5721-2.2369 0.0692-4.6164-1.2475-5.9019-1.294-1.2634-2.1928-1.4812-6.4415-1.5615l-3.1471-0.0595 0.0282 6.279 0.0282 6.279 1.0944 0.0619c1.109 0.0627 1.6826 0.0508 3.0642-0.0639zm-74.448 14.452 0.03284-0.59701 7.3868-10.306c4.0627-5.6683 8.167-11.42 9.1207-12.781 1.8215-2.6005 5.1058-7.4939 5.1058-7.6072 0-0.19518-9.5078-8e-3 -13.351 0.26351-2.4058 0.16967-5.6014 0.4312-5.9139 0.484l-0.278 0.047v-3.0495h26.328v0.46631c0 0.43726-0.13712 0.64687-2.2014 3.3651-3.8559 5.0775-8.9262 12.087-12.626 17.454-1.4884 2.1594-6.3422 9.4506-6.8378 10.272l-0.25508 0.42259 5.1325-0.058c3.1842-0.036 5.901-0.12258 7.1571-0.22812 2.2121-0.18588 6.2526-0.45755 8.1529-0.54817l1.2038-0.0574v3.0558l-28.19 1e-4zm89.714-14.012v-14.609h15.157v1.3084c0 1.2526-9e-3 1.3062-0.21887 1.2571-1.0463-0.24562-3.4183-0.39714-7.0859-0.45266l-4.1311-0.0625v10.779l4.8425-0.0636c2.6634-0.0349 5.0148-0.0938 5.2255-0.13077l0.38303-0.0672v2.3446l-1.5868-0.0965c-0.87274-0.0531-3.2119-0.0965-5.1981-0.0965h-3.6113l-0.0283 6.1766c-0.0156 3.3972 9e-3 6.2108 0.0547 6.2524 0.20124 0.18378 9.037-0.13814 11.087-0.40396l0.49863-0.0646 0.01 2.5396h-15.397v-14.609z" stroke-width=".10943"/>
</g>
</svg>
