<?xml version="1.0" encoding="UTF-8" standalone="no"?>
<svg
   xmlns:dc="http://purl.org/dc/elements/1.1/"
   xmlns:cc="http://creativecommons.org/ns#"
   xmlns:rdf="http://www.w3.org/1999/02/22-rdf-syntax-ns#"
   xmlns:svg="http://www.w3.org/2000/svg"
   xmlns="http://www.w3.org/2000/svg"
   xmlns:sodipodi="http://sodipodi.sourceforge.net/DTD/sodipodi-0.dtd"
   xmlns:inkscape="http://www.inkscape.org/namespaces/inkscape"
   width="200"
   height="200"
   version="1.1"
   viewBox="0 0 52.916667 52.917"
   id="svg18"
   sodipodi:docname="Zope_symbol_white.svg"
   inkscape:version="1.0.2 (e86c870879, 2021-01-15, custom)">
  <metadata
     id="metadata24">
    <rdf:RDF>
      <cc:Work
         rdf:about="">
        <dc:format>image/svg+xml</dc:format>
        <dc:type
           rdf:resource="http://purl.org/dc/dcmitype/StillImage" />
        <dc:title></dc:title>
      </cc:Work>
    </rdf:RDF>
  </metadata>
  <defs
     id="defs22" />
  <sodipodi:namedview
     pagecolor="#ffffff"
     bordercolor="#666666"
     borderopacity="1"
     objecttolerance="10"
     gridtolerance="10"
     guidetolerance="10"
     inkscape:pageopacity="0"
     inkscape:pageshadow="2"
     inkscape:window-width="640"
     inkscape:window-height="480"
     id="namedview20"
     showgrid="false"
     inkscape:zoom="1.5483333"
     inkscape:cx="300"
     inkscape:cy="100"
     inkscape:current-layer="svg18"
     inkscape:document-rotation="0" />
  <path
     d="M 26.451044,0.529357 C 19.17875,0.5314971 12.241845,3.5871705 7.3316985,8.951482 H 40.559304 c 2.618603,0 3.950549,3.147749 2.127802,5.027854 L 22.186682,38.037132 h 27.472042 c 1.79466,-3.595878 2.72889,-7.559618 2.72894,-11.578419 0,-14.320282 -11.608861,-25.9291424 -25.929144,-25.9291424 z M 3.2573555,14.880615 c -1.794388,3.595772 -2.728406,7.559618 -2.728352,11.577886 0,14.320282 11.6088605,25.929142 25.9291425,25.929142 7.274964,-9.6e-5 14.215073,-3.056318 19.126823,-8.422658 H 12.357362 c -2.6186025,0 -3.9505475,-3.14775 -2.127854,-5.027854 L 30.729932,14.880402 Z"
     color="#000000"
     stop-color="#000000"
     style="fill:#ffffff;fill-opacity:1;stroke-width:0.53406;paint-order:markers stroke fill"
     id="path2" />
</svg>
