<?xml version="1.0" encoding="UTF-8"?>
<svg width="600" height="200" version="1.1" viewBox="0 0 158.75 52.917" xmlns="http://www.w3.org/2000/svg">
 <g transform="matrix(.4929 0 0 .4929 -501.25 -327.32)" fill="#fff" opacity=".12">
  <g transform="translate(107.37 206.46)" stroke-width="2.9425px" style="font-feature-settings:normal;font-variant-caps:normal;font-variant-ligatures:normal;font-variant-numeric:normal" aria-label="ZOPE ">
   <path d="m1068.2 485.75-29.102 49.837h30.022v8.9191h-41.561v-8.0916l29.332-49.837h-28.504v-8.9191h39.814z"/>
   <path d="m1099.3 545.19q-6.9882 0-12.321-3.0343-5.3331-3.0803-8.2754-8.6433-2.8965-5.6089-2.8965-12.965v-18.942q0-7.356 2.8965-12.919 2.9423-5.6089 8.2754-8.6433 5.3331-3.0803 12.321-3.0803 6.9881 0 12.321 3.0803 5.3331 3.0343 8.2295 8.6433 2.9424 5.563 2.9424 12.919v18.942q0 7.356-2.9424 12.965-2.8964 5.563-8.2295 8.6433-5.3331 3.0343-12.321 3.0343zm0-9.2409q4.1377 0 7.264-1.839 3.1723-1.885 4.8733-5.2871 1.7471-3.4481 1.7471-7.9536v-19.585q0-4.5055-1.7471-7.9077-1.701-3.4481-4.8733-5.2871-3.1263-1.885-7.264-1.885-4.1378 0-7.31 1.885-3.1263 1.839-4.8733 5.2871-1.7011 3.4021-1.7011 7.9077v19.585q0 4.5055 1.7011 7.9536 1.747 3.4021 4.8733 5.2871 3.1722 1.839 7.31 1.839z"/>
   <path d="m1138.5 509.65h21.378q3.0344 0 5.3331-1.4252 2.2988-1.4252 3.5401-4.0458 1.2873-2.6206 1.2873-6.0227 0-3.4481-1.2873-6.0687-1.2413-2.6206-3.5401-4.0458-2.2987-1.4712-5.3331-1.4712h-21.378v-8.9191h21.056q5.9767 0 10.528 2.5746 4.5515 2.5286 7.0341 7.1721 2.5286 4.6434 2.5286 10.758t-2.5286 10.758q-2.4826 4.5975-7.0341 7.1261-4.5516 2.5286-10.528 2.5286h-21.056zm-4.8274-31.998h9.3789v66.847h-9.3789z"/>
   <path d="m1187.9 477.66h9.3789v66.847h-9.3789zm4.5515 57.928h38.389v8.9191h-38.389zm0-28.734h33.332v8.9191h-33.332zm0-29.194h38.389v8.9191h-38.389z"/>
  </g>
  <path d="m1066.3 669.2c-13.617 4e-3 -26.606 5.7256-35.8 15.77h62.218c4.9032 0 7.3971 5.894 3.9842 9.4144l-38.386 45.047h51.44c3.3604-6.7331 5.1097-14.155 5.1098-21.68 0-26.814-21.737-48.551-48.551-48.551zm-43.429 26.872c-3.3599 6.7329-5.1088 14.155-5.1088 21.679 0 26.814 21.737 48.551 48.551 48.551 13.622-1.8e-4 26.617-5.7228 35.814-15.771h-62.217c-4.9032 0-7.3972-5.894-3.9842-9.4144l38.386-45.045z" color="#000000" stop-color="#000000" style="paint-order:markers stroke fill"/>
 </g>
</svg>
