<?xml version="1.0" encoding="UTF-8" standalone="no"?>
<!-- Created with Inkscape (http://www.inkscape.org/) -->

<svg
   xmlns:dc="http://purl.org/dc/elements/1.1/"
   xmlns:cc="http://creativecommons.org/ns#"
   xmlns:rdf="http://www.w3.org/1999/02/22-rdf-syntax-ns#"
   xmlns:svg="http://www.w3.org/2000/svg"
   xmlns="http://www.w3.org/2000/svg"
   xmlns:sodipodi="http://sodipodi.sourceforge.net/DTD/sodipodi-0.dtd"
   xmlns:inkscape="http://www.inkscape.org/namespaces/inkscape"
   width="600"
   height="200"
   viewBox="0 0 158.74999 52.916666"
   version="1.1"
   id="svg8"
   inkscape:version="0.92.3 (2405546, 2018-03-11)"
   sodipodi:docname="LogoZope.svg">
  <defs
     id="defs2" />
  <sodipodi:namedview
     id="base"
     pagecolor="#ffffff"
     bordercolor="#666666"
     borderopacity="1.0"
     inkscape:pageopacity="0.0"
     inkscape:pageshadow="2"
     inkscape:zoom="0.76435185"
     inkscape:cx="349.75167"
     inkscape:cy="-53.64025"
     inkscape:document-units="mm"
     inkscape:current-layer="layer1"
     showgrid="false"
     fit-margin-top="0"
     fit-margin-left="0"
     fit-margin-right="0"
     fit-margin-bottom="0"
     units="px"
     inkscape:window-width="1920"
     inkscape:window-height="1057"
     inkscape:window-x="-8"
     inkscape:window-y="457"
     inkscape:window-maximized="1" />
  <metadata
     id="metadata5">
    <rdf:RDF>
      <cc:Work
         rdf:about="">
        <dc:format>image/svg+xml</dc:format>
        <dc:type
           rdf:resource="http://purl.org/dc/dcmitype/StillImage" />
        <dc:title></dc:title>
      </cc:Work>
    </rdf:RDF>
  </metadata>
  <g
     inkscape:label="Ebene 1"
     inkscape:groupmode="layer"
     id="layer1"
     transform="translate(-12.461539,-81.391017)">
    <path
       style="fill:#ffffff;stroke-width:0.10943428"
       d="m 35.381286,133.39303 c -1.92113,-0.16142 -4.845064,-0.85968 -6.784927,-1.62031 -3.28884,-1.28955 -6.026397,-3.1033 -8.691257,-5.75832 -3.855002,-3.84077 -6.203661,-8.28521 -7.136405,-13.50445 -0.330267,-1.84804 -0.413055,-6.18679 -0.155563,-8.15286 0.517658,-3.9526 1.807029,-7.414474 3.963819,-10.642614 3.115731,-4.663412 7.823226,-8.33518 12.928178,-10.083759 2.811039,-0.962854 5.428729,-1.379352 8.669326,-1.379352 4.15648,0 7.752721,0.785865 11.214418,2.450615 2.760994,1.327782 4.679853,2.713384 7.058607,5.097009 2.315178,2.319916 3.636339,4.157095 4.992735,6.942808 2.44848,5.028573 3.097662,11.330433 1.776534,17.245513 -0.770788,3.45104 -2.718026,7.33536 -5.102003,10.17739 -1.110204,1.32351 -2.988679,3.13809 -4.288685,4.1428 -3.581823,2.76821 -8.15826,4.58844 -12.683713,5.04482 -1.032367,0.10411 -4.698272,0.13002 -5.761064,0.0407 z m 5.033977,-2.02445 c 5.34056,-0.63033 10.646296,-3.10789 14.301394,-6.67815 0.882606,-0.86212 2.168466,-2.34519 2.168466,-2.50104 0,-0.0398 -1.046463,-0.10542 -2.325477,-0.14585 -1.279013,-0.0404 -4.246051,-0.15492 -6.593417,-0.25441 -2.799765,-0.11867 -6.677244,-0.18352 -11.271732,-0.18852 -7.014948,-0.008 -17.317091,0.12616 -17.480281,0.22701 -0.223105,0.13789 2.145506,2.77318 3.514182,3.90985 3.770877,3.13165 8.050017,4.96008 13.200059,5.64023 0.910781,0.12028 3.43387,0.11515 4.486806,-0.009 z m 19.012713,-13.27749 c 0.44856,-0.81963 1.132497,-2.61495 1.550338,-4.06959 1.183057,-4.11861 1.181158,-8.21311 -0.0057,-12.3449 -0.659588,-2.296167 -1.518292,-4.232707 -2.825196,-6.371374 -0.0079,-0.0129 -0.868961,0.351208 -1.913438,0.809235 -2.012142,0.882365 -5.92247,3.140362 -8.4866,4.900519 -0.722266,0.4958 -2.62807,1.79403 -4.235119,2.88494 -3.830599,2.60032 -10.328392,7.60602 -14.669655,11.30104 -1.910996,1.62652 -3.474539,3.00767 -3.474539,3.06921 0,0.0632 0.130878,0.0866 0.300945,0.0537 0.366792,-0.071 2.154488,-0.14959 6.757567,-0.29711 7.076837,-0.22679 13.14013,-0.1076 22.543464,0.44313 1.865855,0.10928 3.56482,0.19188 3.775485,0.18356 0.341054,-0.0135 0.415826,-0.0751 0.682469,-0.56231 z M 16.71796,115.84332 c 0.86289,-2.3668 3.711832,-5.80575 7.829331,-9.45075 7.014352,-5.95123 15.399594,-11.527422 22.570822,-15.218549 0.826553,-0.416887 1.450005,-0.797535 1.450005,-0.885275 0,-0.176869 -0.10088,-0.203508 -1.586797,-0.419107 -5.175593,-0.750946 -10.727647,-0.751776 -16.743447,-0.002 -3.55978,0.443367 -7.280304,1.59461 -9.836001,3.043541 -1.070307,0.606797 -1.335005,0.901365 -2.446151,2.722214 -0.882057,1.445441 -1.715737,3.25267 -2.281452,4.945656 -1.380328,4.13084 -1.603914,7.99043 -0.70226,12.12282 0.28034,1.28484 1.204424,4.03973 1.339914,3.99457 0.05959,-0.0199 0.242309,-0.40355 0.406036,-0.85263 z M 49.49831,87.850031 c 1.792285,0.483657 1.827848,0.486327 1.217076,0.0911 -2.217734,-1.434922 -5.328723,-2.658314 -8.330305,-3.275881 -4.71398,-0.969884 -10.018368,-0.199778 -14.700446,2.134277 -1.613689,0.804436 -3.848667,2.171837 -3.848667,2.354696 0,0.054 0.278658,-0.0251 0.619238,-0.175719 6.830439,-2.878453 17.815082,-2.964087 25.043104,-1.128473 z m 60.35301,35.653689 c -1.91444,-0.23412 -4.38904,-0.92611 -5.73954,-1.605 -3.20059,-1.60892 -5.795946,-4.68086 -6.948276,-8.22418 -0.55674,-1.71193 -0.718383,-2.90594 -0.713233,-5.26839 0.0064,-2.93007 0.387449,-4.79777 1.417789,-6.94908 1.27568,-2.663535 3.87828,-5.23916 6.76094,-6.690851 2.93435,-1.477711 6.7188,-1.964858 10.88256,-1.400851 3.60616,0.488497 6.45419,1.825889 8.91202,4.184964 1.92938,1.851861 3.06761,3.953408 3.7163,6.861478 0.2873,1.28796 0.39378,4.17439 0.21175,5.74011 -0.40423,3.47706 -1.77752,6.38187 -4.18884,8.86029 -2.20107,2.26233 -5.00125,3.6525 -8.74631,4.34216 -1.09377,0.20142 -4.41132,0.29045 -5.56516,0.14935 z m 5.25285,-1.63527 c 1.96718,-0.48038 4.09464,-1.80311 5.46963,-3.40068 0.9377,-1.08949 1.4804,-1.93532 2.19719,-3.4244 1.2102,-2.5141 1.58073,-4.38448 1.48828,-7.51268 -0.069,-2.33355 -0.19747,-3.37377 -0.57971,-4.69282 -1.245,-4.296204 -4.56291,-7.324055 -8.9037,-8.12527 -1.01778,-0.187859 -3.37369,-0.159499 -4.49458,0.0541 -5.12147,0.976014 -8.34009,4.626763 -9.42003,10.68472 -0.26777,1.50211 -0.32449,4.78772 -0.10673,6.18304 0.66108,4.2361 2.74116,7.45761 5.9232,9.1736 0.93836,0.50602 2.37503,0.99895 3.39247,1.16397 0.45142,0.0732 0.89462,0.15106 0.9849,0.17299 0.48216,0.11709 3.19619,-0.0683 4.04908,-0.27658 z m 17.50948,-13.48469 V 93.741965 l 4.13115,4.2e-4 c 5.6729,4.1e-4 7.78909,0.14438 9.93116,0.675086 2.55252,0.632407 3.99336,2.097928 4.49241,4.569333 0.22422,1.110446 0.17004,3.301386 -0.10713,4.330686 -0.82316,3.05709 -3.39332,5.0115 -8.00666,6.08843 -0.97411,0.22739 -1.36785,0.25424 -3.87487,0.26423 l -2.79057,0.0111 -0.0282,6.67554 -0.0282,6.67554 -1.85956,-0.003 -1.85955,-0.003 v -14.6418 z m 7.93399,-0.472 c 3.45084,-0.28633 5.87915,-2.13229 6.62109,-5.03325 0.5721,-2.23693 0.0692,-4.616432 -1.2475,-5.901884 -1.294,-1.263352 -2.19277,-1.481231 -6.44147,-1.561511 l -3.14714,-0.0595 0.0282,6.279025 0.0282,6.27903 1.09435,0.0619 c 1.109,0.0627 1.68264,0.0508 3.06415,-0.0639 z m -74.448136,14.45215 0.03284,-0.59701 7.386812,-10.30594 c 4.062746,-5.66826 8.167043,-11.41987 9.120658,-12.781324 1.821472,-2.600505 5.105799,-7.493865 5.105799,-7.607194 0,-0.195179 -9.5078,-0.008 -13.350981,0.263508 -2.405828,0.169669 -5.601432,0.431197 -5.913865,0.483997 l -0.278,0.047 v -1.524761 -1.524751 h 13.163885 13.163885 v 0.466307 c 0,0.437258 -0.137116,0.646867 -2.201357,3.3651 -3.855878,5.077519 -8.926178,12.086668 -12.625579,17.453558 -1.488445,2.15935 -6.342187,9.4506 -6.837787,10.27168 l -0.255077,0.42259 5.132523,-0.058 c 3.184233,-0.036 5.901035,-0.12258 7.15706,-0.22812 2.212073,-0.18588 6.252599,-0.45755 8.152856,-0.54817 l 1.203779,-0.0574 v 1.52793 1.52792 l -14.095128,5e-5 -14.095124,5e-5 z M 155.81372,108.35144 V 93.741965 h 7.57833 7.57832 v 1.308433 c 0,1.252592 -0.009,1.306242 -0.21887,1.257052 -1.04634,-0.245619 -3.4183,-0.397138 -7.08587,-0.452657 l -4.13114,-0.0625 v 5.389297 5.38929 l 4.84247,-0.0636 c 2.66335,-0.0349 5.01482,-0.0938 5.22548,-0.13077 l 0.38303,-0.0672 v 1.17229 1.1723 l -1.5868,-0.0965 c -0.87274,-0.0531 -3.21189,-0.0965 -5.19813,-0.0965 h -3.61133 l -0.0283,6.17665 c -0.0156,3.39715 0.009,6.21076 0.0547,6.25244 0.20124,0.18378 9.03703,-0.13814 11.0873,-0.40396 l 0.49863,-0.0646 0.005,1.26978 0.005,1.26978 h -7.69841 -7.69841 v -14.60948 z"
       id="path830"
       inkscape:connector-curvature="0"
       sodipodi:nodetypes="ccsscsssssssscccccsscscccccccsccscssscssccccccssccsscccccsscscccsccsscccscsccsscccccssccccccccccccccccccccccccccccccsscccccccsssccsscccccccccccsccccccsccccsccccccccccccc" />
  </g>
</svg>
