<?xml version="1.0" encoding="UTF-8"?>
<svg width="310" height="150" version="1.0" viewBox="0 0 232.5 112.5" xmlns="http://www.w3.org/2000/svg">
<path d="m49.557 86.426c-2.2695-0.19069-5.7237-1.0156-8.0154-1.9142-3.8853-1.5234-7.1193-3.6661-10.267-6.8026-4.5541-4.5373-7.3287-9.7878-8.4306-15.954-0.39016-2.1832-0.48796-7.3088-0.18378-9.6314 0.61154-4.6694 2.1347-8.7591 4.6827-12.573 3.6808-5.5091 9.242-9.8468 15.273-11.912 3.3208-1.1375 6.4132-1.6295 10.242-1.6295 4.9103 0 9.1587 0.92838 13.248 2.895 3.2617 1.5686 5.5286 3.2055 8.3387 6.0214 2.735 2.7406 4.2958 4.911 5.8982 8.2019 2.8925 5.9405 3.6594 13.385 2.0987 20.373-0.91057 4.0769-3.2109 8.6656-6.0273 12.023-1.3115 1.5635-3.5307 3.7072-5.0665 4.8941-4.2314 3.2702-9.6378 5.4206-14.984 5.9597-1.2196 0.12299-5.5503 0.1536-6.8059 0.0481zm5.9469-2.3916c6.3091-0.74464 12.577-3.6715 16.895-7.8892 1.0427-1.0185 2.5617-2.7705 2.5617-2.9546 0-0.047-1.2362-0.12454-2.7472-0.1723-1.511-0.0477-5.0161-0.18302-7.7892-0.30055-3.3075-0.14019-7.8882-0.21679-13.316-0.22271-8.2871-0.01-20.458 0.14904-20.65 0.26819-0.26357 0.16289 2.5346 3.2761 4.1515 4.6189 4.4547 3.6996 9.5099 5.8596 15.594 6.6631 1.076 0.14209 4.0566 0.13604 5.3005-0.011zm22.461-15.685c0.5299-0.96826 1.3379-3.0892 1.8315-4.8076 1.3976-4.8655 1.3954-9.7026-0.0066-14.584-0.77921-2.7126-1.7936-5.0003-3.3376-7.5268-0.0099-0.0152-1.0265 0.4149-2.2604 0.95599-2.3771 1.0424-6.9965 3.7099-10.026 5.7892-0.85325 0.58572-3.1047 2.1194-5.0032 3.4081-4.5253 3.0719-12.201 8.9854-17.33 13.351-2.2576 1.9215-4.1047 3.5531-4.1047 3.6258 0 0.0747 0.15461 0.10225 0.35552 0.0635 0.43331-0.0839 2.5452-0.17672 7.9831-0.351 8.3602-0.26793 15.523-0.12711 26.632 0.52349 2.2042 0.12911 4.2113 0.22668 4.4602 0.21685 0.40291-0.016 0.49125-0.0887 0.80624-0.66428zm-50.456-2.6554c1.0194-2.796 4.385-6.8586 9.2492-11.165 8.2864-7.0305 18.192-13.618 26.664-17.978 0.97645-0.49249 1.713-0.94218 1.713-1.0458 0-0.20894-0.11918-0.24041-1.8746-0.49511-6.1142-0.88713-12.673-0.88812-19.78-2e-3 -4.2054 0.52378-8.6006 1.8838-11.62 3.5955-1.2644 0.71684-1.5771 1.0648-2.8898 3.2159-1.042 1.7076-2.0269 3.8426-2.6952 5.8426-1.6307 4.88-1.8948 9.4395-0.82962 14.321 0.33118 1.5179 1.4229 4.7724 1.5829 4.719 0.0704-0.0235 0.28625-0.47674 0.47967-1.0073zm38.725-33.07c2.1173 0.57135 2.1593 0.57451 1.4378 0.10761-2.6199-1.6952-6.2951-3.1404-9.841-3.87-5.5689-1.1458-11.835-0.23601-17.366 2.5213-1.9063 0.95032-4.5466 2.5657-4.5466 2.7817 0 0.0638 0.32919-0.0297 0.73154-0.20758 8.0692-3.4005 21.046-3.5016 29.585-1.3331zm71.298 42.12c-2.2616-0.27658-5.185-1.0941-6.7804-1.8961-3.781-1.9007-6.847-5.5298-8.2084-9.7157-0.65771-2.0224-0.84866-3.433-0.84257-6.2238 8e-3 -3.4614 0.45771-5.6679 1.6749-8.2093 1.507-3.1466 4.5816-6.1893 7.9871-7.9043 3.4665-1.7457 7.9373-2.3212 12.856-1.6549 4.2602 0.57709 7.6247 2.157 10.528 4.9439 2.2793 2.1877 3.6239 4.6704 4.3903 8.1058 0.33941 1.5215 0.4652 4.9314 0.25016 6.7811-0.47754 4.1076-2.0999 7.5392-4.9485 10.467-2.6002 2.6726-5.9082 4.3149-10.332 5.1296-1.2921 0.23795-5.2113 0.34313-6.5744 0.17644zm6.2055-1.9318c2.3239-0.5675 4.8372-2.1301 6.4616-4.0174 1.1078-1.2871 1.7489-2.2863 2.5957-4.0454 1.4297-2.97 1.8674-5.1796 1.7582-8.8751-0.0815-2.7567-0.23328-3.9856-0.68484-5.5439-1.4708-5.0753-5.3904-8.6523-10.518-9.5988-1.2024-0.22193-3.9855-0.18842-5.3097 0.0639-6.0503 1.153-9.8526 5.4658-11.128 12.622-0.31633 1.7745-0.38334 5.656-0.12609 7.3044 0.78098 5.0043 3.2383 8.8101 6.9974 10.837 1.1085 0.5978 2.8058 1.1801 4.0077 1.3751 0.53329 0.0865 1.0569 0.17846 1.1635 0.20437 0.5696 0.13832 3.7758-0.0807 4.7834-0.32674zm20.685-15.93v-17.297l4.8804 4.2e-4c6.7017 4.1e-4 9.2017 0.17057 11.732 0.79752 3.0154 0.74709 4.7176 2.4784 5.3071 5.398 0.26488 1.3118 0.20087 3.9001-0.12656 5.1161-0.97244 3.6115-4.0087 5.9204-9.4587 7.1926-1.1508 0.26862-1.6159 0.30035-4.5776 0.31215l-3.2966 0.0131-0.0333 7.8862-0.0333 7.8862-4.3936-6e-3v-17.297zm9.3728-0.55761c4.0767-0.33825 6.9454-2.519 7.8218-5.946 0.67586-2.6426 0.0818-5.4536-1.4737-6.9722-1.5287-1.4925-2.5904-1.7498-7.6097-1.8447l-3.7179-0.0703 0.0666 14.836 1.2928 0.0731c1.3101 0.0741 1.9878 0.06 3.6198-0.0755zm-87.95 17.073 0.0388-0.70528 8.7264-12.175c4.7995-6.6962 9.6482-13.491 10.775-15.099 2.1518-3.0721 6.0318-8.8529 6.0318-8.9868 0-0.23057-11.232-0.01-15.772 0.3113-2.8421 0.20044-6.6173 0.5094-6.9864 0.57177l-0.32841 0.0555v-3.6026h31.102v0.55088c0 0.51656-0.16198 0.76417-2.6006 3.9754-4.5552 5.9983-10.545 14.279-14.915 20.619-1.7584 2.551-7.4924 11.164-8.0779 12.134l-0.30133 0.49923 6.0633-0.0685c3.7617-0.0425 6.9712-0.14481 8.455-0.26949 2.6132-0.21959 7.3865-0.54053 9.6314-0.64758l1.4221-0.0678v3.61l-33.303 1.1e-4zm105.98-16.554v-17.259h17.905v1.5457c0 1.4798-0.0109 1.5431-0.25855 1.485-1.2361-0.29016-4.0382-0.46916-8.3709-0.53475l-4.8803-0.0738v12.733l5.7207-0.0751c3.1464-0.0412 5.9243-0.11081 6.1731-0.15449l0.45251-0.0794v2.7698l-1.8746-0.114c-1.031-0.0627-3.7944-0.114-6.1408-0.114h-4.2663l-0.0334 7.2968c-0.0184 4.0132 0.0109 7.3371 0.0646 7.3864 0.23773 0.21711 10.676-0.16319 13.098-0.47722l0.58905-0.0763 5e-3 1.5 5e-3 1.5001h-18.189v-17.259z" fill="#fff" stroke-width=".12928"/>
</svg>
