<?xml version="1.0" encoding="UTF-8" standalone="no"?>
<svg
   xmlns:dc="http://purl.org/dc/elements/1.1/"
   xmlns:cc="http://creativecommons.org/ns#"
   xmlns:rdf="http://www.w3.org/1999/02/22-rdf-syntax-ns#"
   xmlns:svg="http://www.w3.org/2000/svg"
   xmlns="http://www.w3.org/2000/svg"
   xmlns:sodipodi="http://sodipodi.sourceforge.net/DTD/sodipodi-0.dtd"
   xmlns:inkscape="http://www.inkscape.org/namespaces/inkscape"
   version="1.0"
   width="310"
   height="150"
   viewBox="0 0 232.50001 112.5"
   preserveAspectRatio="xMidYMid meet"
   id="svg1969"
   sodipodi:docname="mstile-310x150.svg"
   inkscape:version="0.92.3 (2405546, 2018-03-11)"
   inkscape:export-filename="C:\Users\Frank Hoffmann\Desktop\favicon\mstile-310x150.png"
   inkscape:export-xdpi="96"
   inkscape:export-ydpi="96">
  <defs
     id="defs1973" />
  <sodipodi:namedview
     pagecolor="#ffffff"
     bordercolor="#666666"
     borderopacity="1"
     objecttolerance="10"
     gridtolerance="10"
     guidetolerance="10"
     inkscape:pageopacity="0"
     inkscape:pageshadow="2"
     inkscape:window-width="1317"
     inkscape:window-height="1048"
     id="namedview1971"
     showgrid="false"
     inkscape:zoom="1.4349638"
     inkscape:cx="176.14444"
     inkscape:cy="193.63609"
     inkscape:window-x="422"
     inkscape:window-y="465"
     inkscape:window-maximized="0"
     inkscape:current-layer="svg1969"
     units="px" />
  <metadata
     id="metadata1963">
Created by potrace 1.11, written by Peter Selinger 2001-2013
<rdf:RDF>
  <cc:Work
     rdf:about="">
    <dc:format>image/svg+xml</dc:format>
    <dc:type
       rdf:resource="http://purl.org/dc/dcmitype/StillImage" />
    <dc:title></dc:title>
  </cc:Work>
</rdf:RDF>
</metadata>
  <path
     style="fill:#ffffff;fill-opacity:1;stroke-width:0.12928057"
     d="m 49.557289,86.426108 c -2.269529,-0.19069 -5.723725,-1.01558 -8.015389,-1.91416 -3.885288,-1.5234 -7.11931,-3.66609 -10.267452,-6.80261 -4.554121,-4.5373 -7.328717,-9.78776 -8.430618,-15.95353 -0.390162,-2.18319 -0.487962,-7.30878 -0.183777,-9.6314 0.611539,-4.66942 2.134742,-8.75911 4.682674,-12.572692 3.680779,-5.50913 9.241996,-9.8468 15.272748,-11.91248 3.320837,-1.13747 6.413248,-1.6295 10.241545,-1.6295 4.910268,0 9.158698,0.92838 13.248185,2.89504 3.261711,1.56858 5.528558,3.20546 8.338717,6.02137 2.735038,2.74063 4.295799,4.911 5.89818,8.201912 2.892526,5.94052 3.659436,13.38523 2.098719,20.37304 -0.91057,4.07689 -3.210948,8.66565 -6.02727,12.0231 -1.311546,1.56353 -3.530685,3.70718 -5.066453,4.89411 -4.231407,3.27024 -9.637793,5.42057 -14.983948,5.95971 -1.219589,0.12299 -5.550321,0.1536 -6.805861,0.0481 z m 5.946907,-2.39159 c 6.309097,-0.74464 12.577042,-3.67151 16.895009,-7.88925 1.042671,-1.01848 2.561722,-2.7705 2.561722,-2.95462 0,-0.047 -1.23624,-0.12454 -2.747212,-0.1723 -1.510972,-0.0477 -5.016084,-0.18302 -7.789153,-0.30055 -3.307515,-0.14019 -7.888183,-0.21679 -13.315905,-0.22271 -8.287133,-0.01 -20.457606,0.14904 -20.65039,0.26819 -0.263566,0.16289 2.534601,3.27611 4.151491,4.61891 4.454736,3.69959 9.509912,5.85961 15.593933,6.66311 1.075962,0.14209 4.056613,0.13604 5.300505,-0.011 z M 77.96494,68.349108 c 0.529902,-0.96826 1.337874,-3.08918 1.831486,-4.80763 1.397613,-4.86553 1.395369,-9.70257 -0.0066,-14.58367 -0.779214,-2.71259 -1.793641,-5.00032 -3.337564,-7.52685 -0.0099,-0.0152 -1.026545,0.4149 -2.260443,0.95599 -2.377052,1.04239 -6.996529,3.70988 -10.025676,5.78925 -0.853251,0.58572 -3.104684,2.11938 -5.003178,3.40814 -4.525286,3.07189 -12.201475,8.98538 -17.330042,13.35051 -2.257563,1.92149 -4.10466,3.55311 -4.10466,3.62582 0,0.0747 0.154608,0.10225 0.355523,0.0635 0.433314,-0.0839 2.545214,-0.17672 7.983073,-0.351 8.36025,-0.26793 15.523144,-0.12711 26.63181,0.52349 2.204229,0.12911 4.211308,0.22668 4.460172,0.21685 0.402914,-0.016 0.491247,-0.0887 0.806243,-0.66428 z m -50.455634,-2.65541 c 1.019378,-2.79603 4.384986,-6.85864 9.249204,-11.16466 8.286433,-7.03051 18.192368,-13.61796 26.664127,-17.978492 0.97645,-0.49249 1.71297,-0.94218 1.71297,-1.04583 0,-0.20894 -0.119182,-0.24041 -1.874574,-0.49511 -6.114202,-0.88713 -12.673137,-0.88812 -19.779927,-0.002 -4.205363,0.52378 -8.600618,1.8838 -11.619796,3.59551 -1.264412,0.71684 -1.577113,1.06482 -2.88977,3.215892 -1.042021,1.70758 -2.026892,3.84255 -2.695201,5.84257 -1.630655,4.87998 -1.89479,9.43952 -0.829618,14.32132 0.331183,1.51786 1.422851,4.77236 1.582912,4.71901 0.0704,-0.0235 0.286253,-0.47674 0.479673,-1.00727 z M 66.234492,32.623746 c 2.117319,0.57135 2.159334,0.57451 1.43779,0.10761 -2.619928,-1.69515 -6.295095,-3.14041 -9.841029,-3.86998 -5.568877,-1.14577 -11.835235,-0.23601 -17.366431,2.52134 -1.906332,0.95032 -4.546633,2.56571 -4.546633,2.78173 0,0.0638 0.329194,-0.0297 0.731539,-0.20758 8.069162,-3.40048 21.04591,-3.50164 29.584764,-1.33312 z m 71.298238,42.119592 c -2.26162,-0.27658 -5.18501,-1.09407 -6.78043,-1.89607 -3.78103,-1.90071 -6.84705,-5.52975 -8.20837,-9.71566 -0.65771,-2.0224 -0.84866,-3.43295 -0.84257,-6.22383 0.008,-3.46145 0.45771,-5.66787 1.6749,-8.20931 1.50703,-3.14658 4.58162,-6.1893 7.98706,-7.90427 3.46651,-1.745702 7.93728,-2.321192 12.85615,-1.654902 4.26016,0.57709 7.62469,2.157022 10.52825,4.943932 2.27928,2.1877 3.62393,4.67037 4.39026,8.10582 0.33941,1.52154 0.4652,4.93142 0.25016,6.78109 -0.47754,4.10764 -2.09988,7.53925 -4.9485,10.46715 -2.60025,2.6726 -5.90825,4.31489 -10.33248,5.12961 -1.29214,0.23795 -5.21133,0.34313 -6.57443,0.17644 z m 6.20547,-1.93183 c 2.32394,-0.5675 4.83722,-2.13011 6.46157,-4.01741 1.10775,-1.28707 1.74888,-2.28629 2.59566,-4.04542 1.42968,-2.97005 1.8674,-5.17963 1.75818,-8.87513 -0.0815,-2.75674 -0.23328,-3.98561 -0.68484,-5.54388 -1.47078,-5.07533 -5.39041,-8.6523 -10.51842,-9.59881 -1.20236,-0.22193 -3.98552,-0.18842 -5.30969,0.0639 -6.05027,1.15302 -9.85259,5.46585 -11.12838,12.62243 -0.31633,1.77452 -0.38334,5.65599 -0.12609,7.30435 0.78098,5.00434 3.23828,8.81007 6.9974,10.83726 1.10853,0.5978 2.80575,1.18011 4.0077,1.37506 0.53329,0.0865 1.05686,0.17846 1.16352,0.20437 0.5696,0.13832 3.77583,-0.0807 4.78339,-0.32674 z m 20.68489,-15.93018 V 39.584186 l 4.88035,4.2e-4 c 6.7017,4.1e-4 9.20167,0.17057 11.73221,0.797522 3.01543,0.74709 4.71757,2.4784 5.30713,5.398 0.26488,1.31183 0.20087,3.9001 -0.12656,5.11606 -0.97244,3.61151 -4.00872,5.92035 -9.4587,7.19259 -1.15077,0.26862 -1.61591,0.30035 -4.57759,0.31215 l -3.29665,0.0131 -0.0333,7.88617 -0.0333,7.88618 -2.1968,-0.003 -2.19678,-0.003 v -17.29748 z m 9.37285,-0.55761 c 4.07666,-0.33825 6.94535,-2.51897 7.82184,-5.94603 0.67586,-2.6426 0.0818,-5.45365 -1.47373,-6.97222 -1.52867,-1.49246 -2.59044,-1.74985 -7.60966,-1.8447 l -3.71788,-0.0703 0.0333,7.41775 0.0333,7.41775 1.29281,0.0731 c 1.31013,0.0741 1.98779,0.06 3.61985,-0.0755 z m -87.949571,17.0731 0.0388,-0.70528 8.72645,-12.17496 c 4.79953,-6.6962 9.648161,-13.49089 10.774721,-15.09924 2.15179,-3.07212 6.03175,-8.852912 6.03175,-8.986802 0,-0.23057 -11.23208,-0.01 -15.772231,0.3113 -2.84214,0.20044 -6.61728,0.5094 -6.98637,0.57177 l -0.32841,0.0555 v -1.80129 -1.80127 h 15.551191 15.55121 v 0.55088 c 0,0.51656 -0.16198,0.76417 -2.60058,3.97537 -4.55516,5.998342 -10.54498,14.278632 -14.91527,20.618822 -1.75838,2.55095 -7.492371,11.16449 -8.077851,12.13447 l -0.30133,0.49923 6.06333,-0.0685 c 3.761691,-0.0425 6.971201,-0.14481 8.455011,-0.26949 2.61324,-0.21959 7.38652,-0.54053 9.63141,-0.64758 l 1.42208,-0.0678 v 1.80502 1.80502 l -16.65132,5e-5 -16.651331,6e-5 z M 191.83058,56.843138 V 39.584186 h 8.95268 8.95267 v 1.545732 c 0,1.47975 -0.0109,1.54313 -0.25855,1.48502 -1.23611,-0.29016 -4.03822,-0.46916 -8.37092,-0.53475 l -4.88034,-0.0738 v 6.36667 6.36666 l 5.72067,-0.0751 c 3.14635,-0.0412 5.92428,-0.11081 6.17313,-0.15449 l 0.45251,-0.0794 v 1.38488 1.3849 l -1.87458,-0.114 c -1.03101,-0.0627 -3.79438,-0.114 -6.14082,-0.114 h -4.26627 l -0.0334,7.2968 c -0.0184,4.01324 0.0109,7.33711 0.0646,7.38635 0.23773,0.21711 10.67593,-0.16319 13.09803,-0.47722 l 0.58905,-0.0763 0.005,1.50005 0.005,1.50006 h -9.09458 -9.09453 v -17.25896 z"
     id="path830-7"
     inkscape:connector-curvature="0"
     sodipodi:nodetypes="ccsscsssssssscccccsscscccccccsccscssscssccccccssccsscccccsscscccsccsscccscsccsscccccssccccccccccccccccccccccccccccccsscccccccsssccsscccccccccccsccccccsccccsccccccccccccc" />
</svg>
