<?xml version="1.0" standalone="no"?>
<!DOCTYPE svg PUBLIC "-//W3C//DTD SVG 20010904//EN"
 "http://www.w3.org/TR/2001/REC-SVG-20010904/DTD/svg10.dtd">
<svg version="1.0" xmlns="http://www.w3.org/2000/svg"
 width="260.000000pt" height="260.000000pt" viewBox="0 0 260.000000 260.000000"
 preserveAspectRatio="xMidYMid meet">
<metadata>
Created by potrace 1.11, written by Peter Selinger 2001-2013
</metadata>
<g fill="#000000" stroke="none">
<path d="M 115.94966,259.11702 C 106.27479,258.30411 91.549765,254.78766 81.780555,250.9571 65.217836,244.46287 51.431413,235.32877 38.011077,221.958 18.597164,202.61575 6.7692309,180.23341 2.0718979,153.94913 0.4086619,144.64233 -0.0082531,122.79224 1.2884879,112.89104 3.8954189,92.985607 10.388735,75.551492 21.250411,59.294468 36.941332,35.809366 60.648454,17.318219 86.357165,8.5123182 100.51365,3.6633482 113.69642,1.5658481 130.01617,1.5658481 c 20.93219,0 39.04297,3.9576501 56.4762,12.3413799 13.90446,6.686759 23.56789,13.664697 35.54739,25.668713 11.65931,11.683178 18.31272,20.935274 25.14359,34.964219 12.3306,25.324068 15.59992,57.06045 8.94668,86.849 -3.88172,17.37955 -13.68807,36.94113 -25.69388,51.25369 -5.59102,6.66524 -15.05108,15.80352 -21.59796,20.86328 -18.03818,13.94079 -41.08528,23.10754 -63.8756,25.40589 -5.19903,0.5243 -23.66067,0.65477 -29.01293,0.20497 z m 25.35128,-10.19518 c 26.89525,-3.17438 53.61511,-15.65144 72.02233,-33.63139 4.44483,-4.34167 10.92045,-11.81045 10.92045,-12.59532 0,-0.20045 -5.27,-0.5309 -11.71118,-0.73452 -6.44115,-0.20345 -21.38325,-0.78017 -33.20467,-1.28121 -14.0997,-0.59763 -33.62682,-0.92421 -56.76483,-0.9494 -35.327505,-0.0401 -87.209456,0.63535 -88.031276,1.14325 -1.123576,0.69442 10.804842,13.96582 17.697539,19.69011 18.990262,15.7711 40.540162,24.97914 66.475937,28.40441 4.58672,0.60573 17.29308,0.5799 22.5957,-0.0453 z m 95.7487,-66.86589 c 2.25894,-4.1277 5.70328,-13.169 7.80754,-20.49461 5.95792,-20.74147 5.94836,-41.3615 -0.0286,-62.169342 -3.32171,-11.563577 -7.64619,-21.316057 -14.2278,-32.086459 -0.0398,-0.06497 -4.37611,1.768695 -9.63612,4.075336 -10.13324,4.44362 -29.82577,15.814971 -42.73882,24.679181 -3.63736,2.496866 -13.23505,9.034804 -21.3282,14.528664 -19.29103,13.0953 -52.01416,38.30417 -73.876895,56.91242 -9.62383,8.19121 -17.497902,15.14674 -17.497902,15.45667 0,0.31826 0.659119,0.4361 1.515583,0.27043 1.847169,-0.35758 10.850069,-0.75335 34.031334,-1.49627 35.63918,-1.14212 66.17414,-0.54186 113.52966,2.23162 9.3965,0.55034 17.95254,0.96631 19.01345,0.9244 1.71757,-0.068 2.09412,-0.3782 3.43696,-2.83179 z M 21.960536,170.73609 c 4.34553,-11.91928 18.692897,-29.23796 39.428779,-47.5943 35.32451,-29.970605 77.552865,-58.052498 113.667415,-76.641141 4.16256,-2.099457 7.30227,-4.016413 7.30227,-4.458275 0,-0.890718 -0.50803,-1.024873 -7.99116,-2.110637 -26.06446,-3.781788 -54.0248,-3.785968 -84.320565,-0.01013 -17.92717,2.232813 -36.663857,8.030512 -49.534442,15.327378 -5.3901,3.055849 -6.72312,4.539304 -12.318897,13.709162 -4.442071,7.279289 -8.640499,16.380558 -11.489473,24.906492 -6.9513781,20.803051 -8.0773521,40.240081 -3.536591,61.050941 1.411794,6.4705 6.065511,20.34423 6.74785,20.11679 0.300086,-0.1002 1.220276,-2.03229 2.044814,-4.29388 z M 187.04349,29.760923 c 9.026,2.435714 9.2051,2.449159 6.12924,0.458782 -11.1686,-7.226317 -26.83563,-13.387358 -41.95171,-16.497447 -23.73976,-4.8843698 -50.45284,-1.00609 -74.031955,10.74829 -8.12658,4.051167 -19.382,10.937446 -19.382,11.858329 0,0.271947 1.40332,-0.126405 3.118504,-0.884924 C 95.323885,20.947964 150.64291,20.51671 187.04349,29.760923 Z" />
</g>
</svg>
