<?xml version="1.0" encoding="UTF-8"?>
<!DOCTYPE svg  PUBLIC '-//W3C//DTD SVG 20010904//EN'  'http://www.w3.org/TR/2001/REC-SVG-20010904/DTD/svg10.dtd'>
<svg width="260pt" height="260pt" version="1.0" viewBox="0 0 260 260" xmlns="http://www.w3.org/2000/svg">
<g>
<path d="m115.95 259.12c-9.6749-0.81291-24.4-4.3294-34.169-8.1599-16.563-6.4942-30.349-15.628-43.769-28.999-19.414-19.342-31.242-41.725-35.939-68.009-1.6632-9.3068-2.0802-31.157-0.78341-41.058 2.6069-19.905 9.1002-37.34 19.962-53.597 15.691-23.485 39.398-41.976 65.107-50.782 14.156-4.849 27.339-6.9465 43.659-6.9465 20.932 0 39.043 3.9577 56.476 12.341 13.904 6.6868 23.568 13.665 35.547 25.669 11.659 11.683 18.313 20.935 25.144 34.964 12.331 25.324 15.6 57.06 8.9467 86.849-3.8817 17.38-13.688 36.941-25.694 51.254-5.591 6.6652-15.051 15.804-21.598 20.863-18.038 13.941-41.085 23.108-63.876 25.406-5.199 0.5243-23.661 0.65477-29.013 0.20497zm25.351-10.195c26.895-3.1744 53.615-15.651 72.022-33.631 4.4448-4.3417 10.92-11.81 10.92-12.595 0-0.20045-5.27-0.5309-11.711-0.73452-6.4412-0.20345-21.383-0.78017-33.205-1.2812-14.1-0.59763-33.627-0.92421-56.765-0.9494-35.328-0.0401-87.209 0.63535-88.031 1.1432-1.1236 0.69442 10.805 13.966 17.698 19.69 18.99 15.771 40.54 24.979 66.476 28.404 4.5867 0.60573 17.293 0.5799 22.596-0.0453zm95.749-66.866c2.2589-4.1277 5.7033-13.169 7.8075-20.495 5.9579-20.741 5.9484-41.362-0.0286-62.169-3.3217-11.564-7.6462-21.316-14.228-32.086-0.0398-0.06497-4.3761 1.7687-9.6361 4.0753-10.133 4.4436-29.826 15.815-42.739 24.679-3.6374 2.4969-13.235 9.0348-21.328 14.529-19.291 13.095-52.014 38.304-73.877 56.912-9.6238 8.1912-17.498 15.147-17.498 15.457 0 0.31826 0.65912 0.4361 1.5156 0.27043 1.8472-0.35758 10.85-0.75335 34.031-1.4963 35.639-1.1421 66.174-0.54186 113.53 2.2316 9.3965 0.55034 17.953 0.96631 19.013 0.9244 1.7176-0.068 2.0941-0.3782 3.437-2.8318zm-215.09-11.32c4.3455-11.919 18.693-29.238 39.429-47.594 35.325-29.971 77.553-58.052 113.67-76.641 4.1626-2.0995 7.3023-4.0164 7.3023-4.4583 0-0.89072-0.50803-1.0249-7.9912-2.1106-26.064-3.7818-54.025-3.786-84.321-0.01013-17.927 2.2328-36.664 8.0305-49.534 15.327-5.3901 3.0558-6.7231 4.5393-12.319 13.709-4.4421 7.2793-8.6405 16.381-11.489 24.906-6.9514 20.803-8.0774 40.24-3.5366 61.051 1.4118 6.4705 6.0655 20.344 6.7478 20.117 0.30009-0.1002 1.2203-2.0323 2.0448-4.2939zm165.08-140.98c9.026 2.4357 9.2051 2.4492 6.1292 0.45878-11.169-7.2263-26.836-13.387-41.952-16.497-23.74-4.8844-50.453-1.0061-74.032 10.748-8.1266 4.0512-19.382 10.937-19.382 11.858 0 0.27195 1.4033-0.1264 3.1185-0.88492 34.398-14.496 89.717-14.927 126.12-5.683z"/>
</g>
</svg>
